<svg xmlns="http://www.w3.org/2000/svg" viewBox="0 0 16 16" id="Twitter-Fill--Streamline-Mingcute-Fill" height="16" width="16"><desc>Twitter Fill Streamline Icon: https://streamlinehq.com</desc><g fill="none" fill-rule="nonzero"><path d="M16 0v16H0V0h16ZM8.395333333333333 15.505333333333333l-0.007333333333333332 0.0013333333333333333 -0.047333333333333324 0.023333333333333334 -0.013333333333333332 0.0026666666666666666 -0.009333333333333332 -0.0026666666666666666 -0.047333333333333324 -0.023333333333333334c-0.006666666666666666 -0.0026666666666666666 -0.012666666666666666 -0.0006666666666666666 -0.016 0.003333333333333333l-0.0026666666666666666 0.006666666666666666 -0.011333333333333334 0.2853333333333333 0.003333333333333333 0.013333333333333332 0.006666666666666666 0.008666666666666666 0.06933333333333333 0.049333333333333326 0.009999999999999998 0.0026666666666666666 0.008 -0.0026666666666666666 0.06933333333333333 -0.049333333333333326 0.008 -0.010666666666666666 0.0026666666666666666 -0.011333333333333334 -0.011333333333333334 -0.2846666666666666c-0.0013333333333333333 -0.006666666666666666 -0.005999999999999999 -0.011333333333333334 -0.011333333333333334 -0.011999999999999999Zm0.17666666666666667 -0.07533333333333334 -0.008666666666666666 0.0013333333333333333 -0.12333333333333332 0.062 -0.006666666666666666 0.006666666666666666 -0.002 0.007333333333333332 0.011999999999999999 0.2866666666666666 0.003333333333333333 0.008 0.005333333333333333 0.004666666666666666 0.134 0.062c0.008 0.0026666666666666666 0.015333333333333332 0 0.019333333333333334 -0.005333333333333333l0.0026666666666666666 -0.009333333333333332 -0.02266666666666667 -0.4093333333333333c-0.002 -0.008 -0.006666666666666666 -0.013333333333333332 -0.013333333333333332 -0.014666666666666665Zm-0.4766666666666666 0.0013333333333333333a0.015333333333333332 0.015333333333333332 0 0 0 -0.018 0.004l-0.004 0.009333333333333332 -0.02266666666666667 0.4093333333333333c0 0.008 0.004666666666666666 0.013333333333333332 0.011333333333333334 0.016l0.009999999999999998 -0.0013333333333333333 0.134 -0.062 0.006666666666666666 -0.005333333333333333 0.0026666666666666666 -0.007333333333333332 0.011333333333333334 -0.2866666666666666 -0.002 -0.008 -0.006666666666666666 -0.006666666666666666 -0.12266666666666666 -0.06133333333333333Z" stroke-width="0.6667"></path><path fill="#ffffff" d="M3.062666666666667 3.3226666666666667a0.6666666666666666 0.6666666666666666 0 0 1 0.6273333333333333 0.286C4.6739999999999995 5.048 5.855333333333332 5.6466666666666665 7.166666666666666 5.782666666666666c0.064 -0.5606666666666666 0.21533333333333332 -1.1146666666666665 0.5 -1.6026666666666665 0.41733333333333333 -0.716 1.0959999999999999 -1.2426666666666666 2.0653333333333332 -1.4373333333333334 1.3399999999999999 -0.2693333333333333 2.36 0.216 2.951333333333333 0.81l1.1946666666666665 -0.22333333333333333a0.6666666666666666 0.6666666666666666 0 0 1 0.702 0.9853333333333333l-1.1466666666666665 2.0146666666666664c0.10466666666666666 2.907333333333333 -0.7033333333333333 4.9366666666666665 -2.4259999999999997 6.334666666666667 -0.9133333333333333 0.7413333333333334 -2.221333333333333 1.162 -3.6566666666666667 1.2919999999999998 -1.4466666666666665 0.13066666666666665 -3.082 -0.027333333333333334 -4.707333333333333 -0.502a0.6666666666666666 0.6666666666666666 0 0 1 0.004666666666666666 -1.2813333333333332c0.8173333333333332 -0.23266666666666663 1.44 -0.43333333333333335 2.002 -0.7846666666666666 -0.7993333333333333 -0.424 -1.388 -0.9786666666666666 -1.8046666666666664 -1.6106666666666665 -0.5786666666666667 -0.8786666666666667 -0.7933333333333332 -1.8586666666666665 -0.836 -2.742 -0.042666666666666665 -0.8833333333333333 0.08466666666666667 -1.702 0.21933333333333332 -2.292 0.07666666666666666 -0.33666666666666667 0.16599999999999998 -0.6739999999999999 0.28933333333333333 -0.9966666666666667a0.6666666666666666 0.6666666666666666 0 0 1 0.5453333333333332 -0.424Z" stroke-width="0.6667"></path></g></svg>